<svg width="350" height="49" viewBox="0 0 350 49" fill="none" xmlns="http://www.w3.org/2000/svg">
<g filter="url(#filter0_i_175_1678)">
<path d="M0 24.5C0 10.969 10.969 0 24.5 0H325.5C339.031 0 350 10.969 350 24.5C350 38.031 339.031 49 325.5 49H24.5C10.969 49 0 38.031 0 24.5Z" fill="#804096"/>
</g>
<path d="M0.5 24.5C0.5 11.2452 11.2452 0.5 24.5 0.5H325.5C338.755 0.5 349.5 11.2452 349.5 24.5C349.5 37.7548 338.755 48.5 325.5 48.5H24.5C11.2452 48.5 0.5 37.7548 0.5 24.5Z" stroke="#050000"/>
<path d="M0.5 24.5C0.5 11.2452 11.2452 0.5 24.5 0.5H325.5C338.755 0.5 349.5 11.2452 349.5 24.5C349.5 37.7548 338.755 48.5 325.5 48.5H24.5C11.2452 48.5 0.5 37.7548 0.5 24.5Z" stroke="black" stroke-opacity="0.2"/>
<defs>
<filter id="filter0_i_175_1678" x="0" y="0" width="350" height="53" filterUnits="userSpaceOnUse" color-interpolation-filters="sRGB">
<feFlood flood-opacity="0" result="BackgroundImageFix"/>
<feBlend mode="normal" in="SourceGraphic" in2="BackgroundImageFix" result="shape"/>
<feColorMatrix in="SourceAlpha" type="matrix" values="0 0 0 0 0 0 0 0 0 0 0 0 0 0 0 0 0 0 127 0" result="hardAlpha"/>
<feOffset dy="4"/>
<feGaussianBlur stdDeviation="2"/>
<feComposite in2="hardAlpha" operator="arithmetic" k2="-1" k3="1"/>
<feColorMatrix type="matrix" values="0 0 0 0 0 0 0 0 0 0 0 0 0 0 0 0 0 0 0.25 0"/>
<feBlend mode="normal" in2="shape" result="effect1_innerShadow_175_1678"/>
</filter>
</defs>
</svg>
