<svg width="358" height="46" viewBox="0 0 358 46" fill="none" xmlns="http://www.w3.org/2000/svg">
<g filter="url(#filter0_d_192_497)">
<path d="M4 19C4 8.50659 12.5066 0 23 0H335C345.493 0 354 8.50659 354 19C354 29.4934 345.493 38 335 38H23C12.5066 38 4 29.4934 4 19Z" fill="white"/>
<path d="M4.5 19C4.5 8.78273 12.7827 0.5 23 0.5H335C345.217 0.5 353.5 8.78273 353.5 19C353.5 29.2173 345.217 37.5 335 37.5H23C12.7827 37.5 4.5 29.2173 4.5 19Z" stroke="#050000"/>
<path d="M4.5 19C4.5 8.78273 12.7827 0.5 23 0.5H335C345.217 0.5 353.5 8.78273 353.5 19C353.5 29.2173 345.217 37.5 335 37.5H23C12.7827 37.5 4.5 29.2173 4.5 19Z" stroke="#43164A"/>
</g>
<defs>
<filter id="filter0_d_192_497" x="0" y="0" width="358" height="46" filterUnits="userSpaceOnUse" color-interpolation-filters="sRGB">
<feFlood flood-opacity="0" result="BackgroundImageFix"/>
<feColorMatrix in="SourceAlpha" type="matrix" values="0 0 0 0 0 0 0 0 0 0 0 0 0 0 0 0 0 0 127 0" result="hardAlpha"/>
<feOffset dy="4"/>
<feGaussianBlur stdDeviation="2"/>
<feComposite in2="hardAlpha" operator="out"/>
<feColorMatrix type="matrix" values="0 0 0 0 0 0 0 0 0 0 0 0 0 0 0 0 0 0 0.25 0"/>
<feBlend mode="normal" in2="BackgroundImageFix" result="effect1_dropShadow_192_497"/>
<feBlend mode="normal" in="SourceGraphic" in2="effect1_dropShadow_192_497" result="shape"/>
</filter>
</defs>
</svg>
