<svg width="84" height="40" viewBox="0 0 84 40" fill="none" xmlns="http://www.w3.org/2000/svg">
<g filter="url(#filter0_i_163_2893)">
<path d="M0 20C0 8.95431 8.9543 0 20 0L64 0C75.0457 0 84 8.95431 84 20C84 31.0457 75.0457 40 64 40H20C8.9543 40 0 31.0457 0 20Z" fill="#5614A9"/>
</g>
<path d="M0.5 20C0.5 9.23045 9.23045 0.5 20 0.5L64 0.5C74.7695 0.5 83.5 9.23045 83.5 20C83.5 30.7696 74.7695 39.5 64 39.5H20C9.23045 39.5 0.5 30.7696 0.5 20Z" stroke="#551C9D"/>
<defs>
<filter id="filter0_i_163_2893" x="0" y="0" width="84" height="40" filterUnits="userSpaceOnUse" color-interpolation-filters="sRGB">
<feFlood flood-opacity="0" result="BackgroundImageFix"/>
<feBlend mode="normal" in="SourceGraphic" in2="BackgroundImageFix" result="shape"/>
<feColorMatrix in="SourceAlpha" type="matrix" values="0 0 0 0 0 0 0 0 0 0 0 0 0 0 0 0 0 0 127 0" result="hardAlpha"/>
<feOffset dx="30000" dy="456"/>
<feGaussianBlur stdDeviation="28"/>
<feComposite in2="hardAlpha" operator="arithmetic" k2="-1" k3="1"/>
<feColorMatrix type="matrix" values="0 0 0 0 0.197257 0 0 0 0 0.0412326 0 0 0 0 0.395833 0 0 0 1 0"/>
<feBlend mode="normal" in2="shape" result="effect1_innerShadow_163_2893"/>
</filter>
</defs>
</svg>
